<svg width="64" height="64" viewBox="0 0 64 64" fill="none" xmlns="http://www.w3.org/2000/svg">
  <defs>
    <linearGradient id="bg" x1="0" y1="0" x2="64" y2="64" gradientUnits="userSpaceOnUse">
      <stop offset="0" stop-color="#c4a6ff"/>
      <stop offset="1" stop-color="#9b6bef"/>
    </linearGradient>
  </defs>
  <rect width="64" height="64" rx="16" fill="url(#bg)"/>
  <!-- 翻开的书本底部 -->
  <path d="M14 44 C14 44 22 41 32 42 C42 41 50 44 50 44 L50 49 C50 49 42 46.5 32 47.5 C22 46.5 14 49 14 49 Z" fill="rgba(255,255,255,0.3)"/>
  <!-- R 字母 -->
  <path d="M22 15 L22 38 M22 15 L33 15 C38 15 41 18 41 23 C41 27.5 38 30.5 33 30.5 L22 30.5 M33 30.5 L41 38" stroke="white" stroke-width="4.5" stroke-linecap="round" stroke-linejoin="round" fill="none"/>
  <!-- 花瓣点缀 -->
  <circle cx="45" cy="18" r="3" fill="rgba(255,255,255,0.6)"/>
</svg>
